<?xml version="1.0" encoding="UTF-8"?>
<svg id="Layer_1" data-name="Layer 1" xmlns="http://www.w3.org/2000/svg" viewBox="0 0 499.5 314.5">
  <defs>
    <style>
      .cls-1, .cls-2, .cls-3 {
        stroke: #3a414a;
      }

      .cls-1, .cls-2, .cls-3, .cls-4 {
        fill: none;
      }

      .cls-1, .cls-4 {
        stroke-width: .45px;
      }

      .cls-5 {
        fill: #f4d9ff;
      }

      .cls-6, .cls-7 {
        fill: #fff;
      }

      .cls-8 {
        fill: #ffd9d9;
      }

      .cls-9 {
        fill: #cfe4ff;
      }

      .cls-10 {
        fill: #c3f7c8;
      }

      .cls-11 {
        fill: #3a414a;
      }

      .cls-2 {
        stroke-width: .02px;
      }

      .cls-3 {
        stroke-width: .9px;
      }

      .cls-4 {
        stroke: #000;
      }

      .cls-4, .cls-7 {
        opacity: 0;
      }
    </style>
  </defs>
  <rect class="cls-6" width="499.5" height="314.55"/>
  <path class="cls-8" d="M63,199.03c0-2.7,2.67-3.07,2.67-3.07l48.67-6.74c2.65-.36,2.65,2.34,2.65,2.34v39.6c0,2.7-2.7,2.7-2.7,2.7h-48.6c-2.7,0-2.7-2.7-2.7-2.7v-32.13Z"/>
  <path class="cls-1" d="M63,199.03c0-2.7,2.67-3.07,2.67-3.07l48.67-6.74c2.65-.36,2.65,2.34,2.65,2.34v39.6c0,2.7-2.7,2.7-2.7,2.7h-48.6c-2.7,0-2.7-2.7-2.7-2.7v-32.13Z"/>
  <polygon class="cls-11" points="77.51 210.74 77.51 207.3 77.51 203.86 78.43 203.86 78.43 206.93 78.43 209.99 81.9 209.99 81.9 210.37 81.9 210.74 77.51 210.74"/>
  <path class="cls-11" d="M82.9,210.74v-5.28h.89v5.28h-.89Zm0-6.42v-.83h.89v.83h-.89Z"/>
  <path class="cls-11" d="M88.18,206.77c-.08-.94-2.39-1.06-2.42,0,.42,1.47,3.19,.33,3.31,2.5,.11,2.17-4.17,2.06-4.36,.22l.78-.14c.11,1,2.69,1.25,2.72,0-.28-1.56-3.14-.42-3.28-2.5-.11-1.58,2.28-1.75,3.39-1.17,.33,.19,.58,.53,.67,.97l-.81,.11Z"/>
  <path class="cls-11" d="M91.07,209.44c-.06,.67,.5,.81,1.06,.61v.67c-.92,.28-1.94,.14-1.94-1.08v-3.53h-.61v-.64h.67l.25-1.19h.58v1.19h.97v.64h-.97v3.33Z"/>
  <path class="cls-11" d="M97.74,210.19c1.22,.03,1.47-.86,1.47-2.08s-.22-2.08-1.42-2.08-1.47,.89-1.47,2.08,.28,2.06,1.42,2.08Zm.03-4.83c1.72-.03,2.36,1.03,2.36,2.75,.03,1.75-.75,2.75-2.39,2.75s-2.31-1.08-2.33-2.75c0-1.83,.78-2.75,2.36-2.75Z"/>
  <path class="cls-11" d="M103.35,204.24c-.86-.25-1.17,.28-1.06,1.22h1.06v.64h-1.06v4.64h-.86v-4.64h-.75v-.64h.75c-.19-1.44,.47-2.28,1.92-1.89v.67Z"/>
  <path class="cls-11" d="M79.75,218.05c-1.86,.08-1.06,2.92-1.22,4.69h-.86v-3.36c0-.81-.14-1.39-.97-1.33-1.83,.11-1.06,2.89-1.22,4.69h-.86l-.03-5.28h.83c.03,.28-.03,.67,.06,.89,.28-1.22,2.75-1.39,2.97,0,.31-.58,.75-.97,1.61-1,2.36-.06,1.31,3.31,1.53,5.39h-.86v-3.36c0-.81-.14-1.36-.97-1.33Z"/>
  <path class="cls-11" d="M84.97,222.19c1.22,.03,1.47-.86,1.47-2.08s-.22-2.08-1.42-2.08-1.47,.89-1.47,2.08,.28,2.06,1.42,2.08Zm.03-4.83c1.72-.03,2.36,1.03,2.36,2.75,.03,1.75-.75,2.75-2.39,2.75s-2.31-1.08-2.33-2.75c0-1.83,.78-2.75,2.36-2.75Z"/>
  <path class="cls-11" d="M90.38,218.02c-1.11,0-1.28,.94-1.28,2.08s.17,2.06,1.25,2.06c1.17,0,1.42-.89,1.42-2.11s-.25-2.06-1.39-2.03Zm-.25-.67c.86,0,1.33,.36,1.67,.92l-.03-2.78h.89l.03,7.25h-.83c-.06-.28,0-.64-.08-.86-.28,.64-.78,.97-1.64,.97-1.47,0-1.92-1.08-1.94-2.72,0-1.83,.64-2.78,1.94-2.78Z"/>
  <path class="cls-11" d="M97.55,219.61c.17-1.67-2.11-2.14-2.69-.78-.08,.19-.17,.47-.17,.78h2.86Zm-1.44-2.25c1.75,0,2.39,1.17,2.33,2.94h-3.75c0,1.11,.39,1.86,1.47,1.89,.72,.03,1.19-.33,1.36-.81l.78,.22c-.31,.78-1.03,1.25-2.14,1.25-1.61,0-2.44-1.03-2.42-2.78,.03-1.69,.72-2.72,2.36-2.72Z"/>
  <polygon class="cls-11" points="99.55 222.75 99.55 219.12 99.55 215.5 100.44 215.5 100.44 219.12 100.44 222.75 99.55 222.75"/>
  <path class="cls-11" d="M104.82,218.77c-.08-.94-2.39-1.06-2.42,0,.42,1.47,3.19,.33,3.31,2.5,.11,2.17-4.17,2.06-4.36,.22l.78-.14c.11,1,2.69,1.25,2.72,0-.28-1.56-3.14-.42-3.28-2.5-.11-1.58,2.28-1.75,3.39-1.17,.33,.19,.58,.53,.67,.97l-.81,.11Z"/>
  <path class="cls-9" d="M153.18,135.31c0-2.7,2.7-2.7,2.7-2.7h57.6c2.7,0,2.7,2.7,2.7,2.7v39.6c0,2.7-2.7,2.7-2.7,2.7h-57.6c-2.7,0-2.7-2.7-2.7-2.7v-39.6Z"/>
  <path class="cls-1" d="M153.18,135.31c0-2.7,2.7-2.7,2.7-2.7h57.6c2.7,0,2.7,2.7,2.7,2.7v39.6c0,2.7-2.7,2.7-2.7,2.7h-57.6c-2.7,0-2.7-2.7-2.7-2.7v-39.6Z"/>
  <path class="cls-11" d="M168.94,146.39c-.28-.78-.97-1.25-2.03-1.25-1.64,0-2.42,1.11-2.42,2.75s.81,2.81,2.47,2.81c1.19,0,1.72-.67,2.17-1.44l.75,.39c-.5,1.06-1.42,1.83-2.97,1.83-2.22,0-3.25-1.39-3.36-3.58-.17-2.89,2.75-4.25,5.19-3.08,.53,.25,.86,.72,1.08,1.28l-.89,.31Z"/>
  <path class="cls-11" d="M173,150.8c1.22,.03,1.47-.86,1.47-2.08s-.22-2.08-1.42-2.08-1.47,.89-1.47,2.08,.28,2.06,1.42,2.08Zm.03-4.83c1.72-.03,2.36,1.03,2.36,2.75,.03,1.75-.75,2.75-2.39,2.75s-2.31-1.08-2.33-2.75c0-1.83,.78-2.75,2.36-2.75Z"/>
  <path class="cls-11" d="M179.05,145.97c2.47-.11,1.47,3.22,1.67,5.39h-.89v-3.36c0-.86-.22-1.36-1.08-1.33-2,.06-1.22,2.83-1.36,4.69h-.89l-.03-5.28h.83c.03,.28-.03,.67,.06,.89,.31-.61,.81-.97,1.69-1Z"/>
  <path class="cls-11" d="M184.16,144.86c-.86-.25-1.17,.28-1.06,1.22h1.06v.64h-1.06v4.64h-.86v-4.64h-.75v-.64h.75c-.19-1.44,.47-2.28,1.92-1.89v.67Z"/>
  <path class="cls-11" d="M184.8,151.36v-5.28h.89v5.28h-.89Zm0-6.42v-.83h.89v.83h-.89Z"/>
  <path class="cls-11" d="M188.94,150.75c1,0,1.39-.89,1.39-2.03s-.39-2.08-1.39-2.08c-1.08,0-1.28,.94-1.28,2.08s.17,2.03,1.28,2.03Zm2.31-4.67c-.28,3.47,1.14,8.14-3.06,7.25-.64-.17-1.06-.56-1.22-1.19l.89-.14c.42,1.31,2.78,.89,2.47-.78v-.83c-.31,.58-.81,1-1.69,1-1.5,0-1.89-1.14-1.89-2.67s.44-2.69,1.97-2.72c.81-.03,1.33,.44,1.64,.97,.03-.28,0-.64,.06-.89h.83Z"/>
  <path class="cls-11" d="M194.22,151.47c-2.47,.11-1.5-3.22-1.69-5.39h.89v3.33c0,.86,.19,1.39,1.08,1.36,2-.06,1.25-2.81,1.39-4.69h.86l.03,5.28h-.83c-.03-.28,.03-.69-.06-.92-.31,.61-.78,1-1.67,1.03Z"/>
  <path class="cls-11" d="M200.61,146.83c-2.17-.44-1.47,2.53-1.58,4.53h-.89l-.03-5.28h.83c.03,.33-.03,.81,.06,1.08,.17-.75,.64-1.36,1.61-1.14v.81Z"/>
  <path class="cls-11" d="M204.97,148.22c.17-1.67-2.11-2.14-2.69-.78-.08,.19-.17,.47-.17,.78h2.86Zm-1.44-2.25c1.75,0,2.39,1.17,2.33,2.94h-3.75c0,1.11,.39,1.86,1.47,1.89,.72,.03,1.19-.33,1.36-.81l.78,.22c-.31,.78-1.03,1.25-2.14,1.25-1.61,0-2.44-1.03-2.42-2.78,.03-1.69,.72-2.72,2.36-2.72Z"/>
  <path class="cls-11" d="M165.98,159.38c-.08-.94-2.39-1.06-2.42,0,.42,1.47,3.19,.33,3.31,2.5,.11,2.17-4.17,2.06-4.36,.22l.78-.14c.11,1,2.69,1.25,2.72,0-.28-1.56-3.14-.42-3.28-2.5-.11-1.58,2.28-1.75,3.39-1.17,.33,.19,.58,.53,.67,.97l-.81,.11Z"/>
  <path class="cls-11" d="M167.9,163.35v-5.28h.89v5.28h-.89Zm0-6.42v-.83h.89v.83h-.89Z"/>
  <path class="cls-11" d="M175.26,158.66c-1.86,.08-1.06,2.92-1.22,4.69h-.86v-3.36c0-.81-.14-1.39-.97-1.33-1.83,.11-1.06,2.89-1.22,4.69h-.86l-.03-5.28h.83c.03,.28-.03,.67,.06,.89,.28-1.22,2.75-1.39,2.97,0,.31-.58,.75-.97,1.61-1,2.36-.06,1.31,3.31,1.53,5.39h-.86v-3.36c0-.81-.14-1.36-.97-1.33Z"/>
  <path class="cls-11" d="M180.07,163.47c-2.47,.11-1.5-3.22-1.69-5.39h.89v3.33c0,.86,.19,1.39,1.08,1.36,2-.06,1.25-2.81,1.39-4.69h.86l.03,5.28h-.83c-.03-.28,.03-.69-.06-.92-.31,.61-.78,1-1.67,1.03Z"/>
  <polygon class="cls-11" points="183.95 163.35 183.95 159.73 183.95 156.11 184.84 156.11 184.84 159.73 184.84 163.35 183.95 163.35"/>
  <path class="cls-11" d="M186.82,161.88c0,.56,.33,.92,.89,.92,1.14-.08,1.75-.81,1.67-2.06-1.19,.06-2.56-.14-2.56,1.14Zm2.58,.47c-.42,.58-.86,1.14-1.89,1.11-1-.03-1.61-.58-1.61-1.58-.03-1.78,1.75-1.75,3.47-1.75,.08-.97-.25-1.5-1.14-1.5-.67,.03-1.14,.19-1.17,.86l-.92-.08c.14-1.03,.92-1.44,2.11-1.44s2,.56,2,1.78v2.28c-.03,.56,.19,.89,.78,.75v.56c-.86,.25-1.69-.06-1.64-.97Z"/>
  <path class="cls-11" d="M192.68,162.05c-.06,.67,.5,.81,1.06,.61v.67c-.92,.28-1.94,.14-1.94-1.08v-3.53h-.61v-.64h.67l.25-1.19h.58v1.19h.97v.64h-.97v3.33Z"/>
  <path class="cls-11" d="M194.48,163.35v-5.28h.89v5.28h-.89Zm0-6.42v-.83h.89v.83h-.89Z"/>
  <path class="cls-11" d="M198.76,162.8c1.22,.03,1.47-.86,1.47-2.08s-.22-2.08-1.42-2.08-1.47,.89-1.47,2.08,.28,2.06,1.42,2.08Zm.03-4.83c1.72-.03,2.36,1.03,2.36,2.75,.03,1.75-.75,2.75-2.39,2.75s-2.31-1.08-2.33-2.75c0-1.83,.78-2.75,2.36-2.75Z"/>
  <path class="cls-11" d="M204.81,157.97c2.47-.11,1.47,3.22,1.67,5.39h-.89v-3.36c0-.86-.22-1.36-1.08-1.33-2,.06-1.22,2.83-1.36,4.69h-.89l-.03-5.28h.83c.03,.28-.03,.67,.06,.89,.31-.61,.81-.97,1.69-1Z"/>
  <path class="cls-5" d="M213.93,109.17c0,2.48-13.1,4.5-29.25,4.5s-29.25-2.02-29.25-4.5v-36.22c0-2.52,13.1-4.54,29.25-4.54s29.25,2.02,29.25,4.54v36.22Z"/>
  <path class="cls-1" d="M213.93,109.17c0,2.48-13.1,4.5-29.25,4.5s-29.25-2.02-29.25-4.5v-36.22c0-2.52,13.1-4.54,29.25-4.54s29.25,2.02,29.25,4.54v36.22Z"/>
  <path class="cls-1" d="M213.93,72.94c0,2.48-13.1,4.5-29.25,4.5s-29.25-2.02-29.25-4.5"/>
  <path class="cls-11" d="M170.73,88.94l-1.31-3.42c-.33,1.25-.86,2.28-1.28,3.42h2.58Zm1.06,2.75l-.78-2h-3.14l-.78,2h-.97l2.81-6.89h1.06l2.75,6.89h-.94Z"/>
  <path class="cls-11" d="M176.01,86.3c2.47-.11,1.47,3.22,1.67,5.39h-.89v-3.36c0-.86-.22-1.36-1.08-1.33-2,.06-1.22,2.83-1.36,4.69h-.89l-.03-5.28h.83c.03,.28-.03,.67,.06,.89,.31-.61,.81-.97,1.69-1Z"/>
  <path class="cls-11" d="M179.65,90.22c0,.56,.33,.92,.89,.92,1.14-.08,1.75-.81,1.67-2.06-1.19,.06-2.56-.14-2.56,1.14Zm2.58,.47c-.42,.58-.86,1.14-1.89,1.11-1-.03-1.61-.58-1.61-1.58-.03-1.78,1.75-1.75,3.47-1.75,.08-.97-.25-1.5-1.14-1.5-.67,.03-1.14,.19-1.17,.86l-.92-.08c.14-1.03,.92-1.44,2.11-1.44s2,.56,2,1.78v2.28c-.03,.56,.19,.89,.78,.75v.56c-.86,.25-1.69-.06-1.64-.97Z"/>
  <polygon class="cls-11" points="184.54 91.69 184.54 88.06 184.54 84.44 185.43 84.44 185.43 88.06 185.43 91.69 184.54 91.69"/>
  <path class="cls-11" d="M191.04,86.41l-2.39,6.14c-.39,.78-1.03,1.42-2.25,1.17v-.67c1.08,.17,1.47-.56,1.78-1.39l-2.08-5.25h.94l1.58,4.33,1.5-4.33h.92Z"/>
  <path class="cls-11" d="M194.81,87.72c-.08-.94-2.39-1.06-2.42,0,.42,1.47,3.19,.33,3.31,2.5,.11,2.17-4.17,2.06-4.36,.22l.78-.14c.11,1,2.69,1.25,2.72,0-.28-1.56-3.14-.42-3.28-2.5-.11-1.58,2.28-1.75,3.39-1.17,.33,.19,.58,.53,.67,.97l-.81,.11Z"/>
  <path class="cls-11" d="M196.73,91.69v-5.28h.89v5.28h-.89Zm0-6.42v-.83h.89v.83h-.89Z"/>
  <path class="cls-11" d="M202.01,87.72c-.08-.94-2.39-1.06-2.42,0,.42,1.47,3.19,.33,3.31,2.5,.11,2.17-4.17,2.06-4.36,.22l.78-.14c.11,1,2.69,1.25,2.72,0-.28-1.56-3.14-.42-3.28-2.5-.11-1.58,2.28-1.75,3.39-1.17,.33,.19,.58,.53,.67,.97l-.81,.11Z"/>
  <path class="cls-11" d="M175.89,102.93c2.47,.22,4.06-.44,4.06-2.75s-1.67-2.81-4.06-2.64v5.39Zm-.92-6.14c3.28-.19,6,.22,5.92,3.39-.08,2.17-1.19,3.5-3.36,3.5h-2.56v-6.89Z"/>
  <path class="cls-11" d="M182.66,102.21c0,.56,.33,.92,.89,.92,1.14-.08,1.75-.81,1.67-2.06-1.19,.06-2.56-.14-2.56,1.14Zm2.58,.47c-.42,.58-.86,1.14-1.89,1.11-1-.03-1.61-.58-1.61-1.58-.03-1.78,1.75-1.75,3.47-1.75,.08-.97-.25-1.5-1.14-1.5-.67,.03-1.14,.19-1.17,.86l-.92-.08c.14-1.03,.92-1.44,2.11-1.44s2,.56,2,1.78v2.28c-.03,.56,.19,.89,.78,.75v.56c-.86,.25-1.69-.06-1.64-.97Z"/>
  <path class="cls-11" d="M188.52,102.38c-.06,.67,.5,.81,1.06,.61v.67c-.92,.28-1.94,.14-1.94-1.08v-3.53h-.61v-.64h.67l.25-1.19h.58v1.19h.97v.64h-.97v3.33Z"/>
  <path class="cls-11" d="M191,102.21c0,.56,.33,.92,.89,.92,1.14-.08,1.75-.81,1.67-2.06-1.19,.06-2.56-.14-2.56,1.14Zm2.58,.47c-.42,.58-.86,1.14-1.89,1.11-1-.03-1.61-.58-1.61-1.58-.03-1.78,1.75-1.75,3.47-1.75,.08-.97-.25-1.5-1.14-1.5-.67,.03-1.14,.19-1.17,.86l-.92-.08c.14-1.03,.92-1.44,2.11-1.44s2,.56,2,1.78v2.28c-.03,.56,.19,.89,.78,.75v.56c-.86,.25-1.69-.06-1.64-.97Z"/>
  <line class="cls-3" x1="184.72" y1="114.39" x2="184.72" y2="124.11"/>
  <polygon class="cls-11" points="184.72 113.94 185.18 113.94 185.18 114.39 184.27 114.39 184.27 113.89 184.72 113.94"/>
  <polygon class="cls-2" points="184.72 113.94 185.18 113.94 185.18 114.39 184.27 114.39 184.27 113.89 184.72 113.94"/>
  <polygon class="cls-11" points="184.72 130.95 182.61 124.56 186.79 124.56 184.72 130.95"/>
  <polygon class="cls-3" points="184.72 130.95 182.61 124.56 186.79 124.56 184.72 130.95"/>
  <path class="cls-3" d="M117.67,211.45h14.72c2.7,0,2.7-2.7,2.7-2.7v-50.85c0-2.74,2.7-2.74,2.7-2.74l6.88,.04"/>
  <rect class="cls-11" x="117.22" y="211" width=".45" height=".9"/>
  <rect class="cls-2" x="117.22" y="211" width=".45" height=".9"/>
  <polygon class="cls-11" points="151.56 155.2 145.12 157.27 145.12 153.13 151.56 155.2"/>
  <polygon class="cls-3" points="151.56 155.2 145.12 157.27 145.12 153.13 151.56 155.2"/>
  <path class="cls-8" d="M63.18,131.94c0-2.7,2.67-3.07,2.67-3.07l48.67-6.74c2.66-.36,2.66,2.34,2.66,2.34v39.6c0,2.7-2.7,2.7-2.7,2.7h-48.6c-2.7,0-2.7-2.7-2.7-2.7v-32.13Z"/>
  <path class="cls-1" d="M63.18,131.94c0-2.7,2.67-3.07,2.67-3.07l48.67-6.74c2.66-.36,2.66,2.34,2.66,2.34v39.6c0,2.7-2.7,2.7-2.7,2.7h-48.6c-2.7,0-2.7-2.7-2.7-2.7v-32.13Z"/>
  <path class="cls-11" d="M72.04,138.94c-.14-1.33-3.42-1.5-3.44,.06,.39,2.08,4.39,.39,4.53,3.31,.08,2.17-3.36,2.42-4.86,1.53-.47-.28-.78-.72-.92-1.28l.92-.19c.14,1.56,3.92,1.75,3.92-.03,0-2.17-4.3-.39-4.5-3.28-.14-2.28,4.03-2.33,4.97-.94,.14,.19,.22,.44,.31,.69l-.92,.14Z"/>
  <path class="cls-11" d="M74.23,144.18v-5.28h.89v5.28h-.89Zm0-6.42v-.83h.89v.83h-.89Z"/>
  <path class="cls-11" d="M81.59,139.49c-1.86,.08-1.06,2.92-1.22,4.69h-.86v-3.36c0-.81-.14-1.39-.97-1.33-1.83,.11-1.06,2.89-1.22,4.69h-.86l-.03-5.28h.83c.03,.28-.03,.67,.06,.89,.28-1.22,2.75-1.39,2.97,0,.31-.58,.75-.97,1.61-1,2.36-.06,1.31,3.31,1.53,5.39h-.86v-3.36c0-.81-.14-1.36-.97-1.33Z"/>
  <path class="cls-11" d="M86.4,144.3c-2.47,.11-1.5-3.22-1.69-5.39h.89v3.33c0,.86,.19,1.39,1.08,1.36,2-.06,1.25-2.81,1.39-4.69h.86l.03,5.28h-.83c-.03-.28,.03-.69-.06-.92-.31,.61-.78,1-1.67,1.03Z"/>
  <polygon class="cls-11" points="90.29 144.18 90.29 140.56 90.29 136.94 91.18 136.94 91.18 140.56 91.18 144.18 90.29 144.18"/>
  <path class="cls-11" d="M93.15,142.71c0,.56,.33,.92,.89,.92,1.14-.08,1.75-.81,1.67-2.06-1.19,.06-2.56-.14-2.56,1.14Zm2.58,.47c-.42,.58-.86,1.14-1.89,1.11-1-.03-1.61-.58-1.61-1.58-.03-1.78,1.75-1.75,3.47-1.75,.08-.97-.25-1.5-1.14-1.5-.67,.03-1.14,.19-1.17,.86l-.92-.08c.14-1.03,.92-1.44,2.11-1.44s2,.56,2,1.78v2.28c-.03,.56,.19,.89,.78,.75v.56c-.86,.25-1.69-.06-1.64-.97Z"/>
  <path class="cls-11" d="M99.01,142.88c-.06,.67,.5,.81,1.06,.61v.67c-.92,.28-1.94,.14-1.94-1.08v-3.53h-.61v-.64h.67l.25-1.19h.58v1.19h.97v.64h-.97v3.33Z"/>
  <path class="cls-11" d="M100.81,144.18v-5.28h.89v5.28h-.89Zm0-6.42v-.83h.89v.83h-.89Z"/>
  <path class="cls-11" d="M105.09,143.63c1.22,.03,1.47-.86,1.47-2.08s-.22-2.08-1.42-2.08-1.47,.89-1.47,2.08,.28,2.06,1.42,2.08Zm.03-4.83c1.72-.03,2.36,1.03,2.36,2.75,.03,1.75-.75,2.75-2.39,2.75s-2.31-1.08-2.33-2.75c0-1.83,.78-2.75,2.36-2.75Z"/>
  <path class="cls-11" d="M111.15,138.8c2.47-.11,1.47,3.22,1.67,5.39h-.89v-3.36c0-.86-.22-1.36-1.08-1.33-2,.06-1.22,2.83-1.36,4.69h-.89l-.03-5.28h.83c.03,.28-.03,.67,.06,.89,.31-.61,.81-.97,1.69-1Z"/>
  <path class="cls-11" d="M67.92,155.63c1.11,0,1.25-.94,1.25-2.08s-.17-2.03-1.25-2.06c-1.17,0-1.42,.89-1.42,2.11s.28,2.03,1.42,2.03Zm.22-4.83c1.53,.03,1.94,1.14,1.94,2.72s-.44,2.72-1.94,2.78c-.86,0-1.36-.36-1.67-.94l.03,2.92h-.89l-.03-7.36h.86l.06,.83c.28-.58,.78-.94,1.64-.94Z"/>
  <path class="cls-11" d="M71.83,154.71c0,.56,.33,.92,.89,.92,1.14-.08,1.75-.81,1.67-2.06-1.19,.06-2.56-.14-2.56,1.14Zm2.58,.47c-.42,.58-.86,1.14-1.89,1.11-1-.03-1.61-.58-1.61-1.58-.03-1.78,1.75-1.75,3.47-1.75,.08-.97-.25-1.5-1.14-1.5-.67,.03-1.14,.19-1.17,.86l-.92-.08c.14-1.03,.92-1.44,2.11-1.44s2,.56,2,1.78v2.28c-.03,.56,.19,.89,.78,.75v.56c-.86,.25-1.69-.06-1.64-.97Z"/>
  <path class="cls-11" d="M79.22,151.65c-2.17-.44-1.47,2.53-1.58,4.53h-.89l-.03-5.28h.83c.03,.33-.03,.81,.06,1.08,.17-.75,.64-1.36,1.61-1.14v.81Z"/>
  <path class="cls-11" d="M80.69,154.71c0,.56,.33,.92,.89,.92,1.14-.08,1.75-.81,1.67-2.06-1.19,.06-2.56-.14-2.56,1.14Zm2.58,.47c-.42,.58-.86,1.14-1.89,1.11-1-.03-1.61-.58-1.61-1.58-.03-1.78,1.75-1.75,3.47-1.75,.08-.97-.25-1.5-1.14-1.5-.67,.03-1.14,.19-1.17,.86l-.92-.08c.14-1.03,.92-1.44,2.11-1.44s2,.56,2,1.78v2.28c-.03,.56,.19,.89,.78,.75v.56c-.86,.25-1.69-.06-1.64-.97Z"/>
  <path class="cls-11" d="M90.75,151.49c-1.86,.08-1.06,2.92-1.22,4.69h-.86v-3.36c0-.81-.14-1.39-.97-1.33-1.83,.11-1.06,2.89-1.22,4.69h-.86l-.03-5.28h.83c.03,.28-.03,.67,.06,.89,.28-1.22,2.75-1.39,2.97,0,.31-.58,.75-.97,1.61-1,2.36-.06,1.31,3.31,1.53,5.39h-.86v-3.36c0-.81-.14-1.36-.97-1.33Z"/>
  <path class="cls-11" d="M97.44,153.04c.17-1.67-2.11-2.14-2.69-.78-.08,.19-.17,.47-.17,.78h2.86Zm-1.44-2.25c1.75,0,2.39,1.17,2.33,2.94h-3.75c0,1.11,.39,1.86,1.47,1.89,.72,.03,1.19-.33,1.36-.81l.78,.22c-.31,.78-1.03,1.25-2.14,1.25-1.61,0-2.44-1.03-2.42-2.78,.03-1.69,.72-2.72,2.36-2.72Z"/>
  <path class="cls-11" d="M100.41,154.88c-.06,.67,.5,.81,1.06,.61v.67c-.92,.28-1.94,.14-1.94-1.08v-3.53h-.61v-.64h.67l.25-1.19h.58v1.19h.97v.64h-.97v3.33Z"/>
  <path class="cls-11" d="M105.77,153.04c.17-1.67-2.11-2.14-2.69-.78-.08,.19-.17,.47-.17,.78h2.86Zm-1.44-2.25c1.75,0,2.39,1.17,2.33,2.94h-3.75c0,1.11,.39,1.86,1.47,1.89,.72,.03,1.19-.33,1.36-.81l.78,.22c-.31,.78-1.03,1.25-2.14,1.25-1.61,0-2.44-1.03-2.42-2.78,.03-1.69,.72-2.72,2.36-2.72Z"/>
  <path class="cls-11" d="M110.27,151.65c-2.17-.44-1.47,2.53-1.58,4.53h-.89l-.03-5.28h.83c.03,.33-.03,.81,.06,1.08,.17-.75,.64-1.36,1.61-1.14v.81Z"/>
  <path class="cls-11" d="M114.16,152.21c-.08-.94-2.39-1.06-2.42,0,.42,1.47,3.19,.33,3.31,2.5,.11,2.17-4.17,2.06-4.36,.22l.78-.14c.11,1,2.69,1.25,2.72,0-.28-1.56-3.14-.42-3.28-2.5-.11-1.58,2.28-1.75,3.39-1.17,.33,.19,.58,.53,.67,.97l-.81,.11Z"/>
  <path class="cls-3" d="M117.85,144.36h14.67c2.65,0,2.65,2.7,2.65,2.7l.05,5.36c-.05,2.7,2.65,2.7,2.65,2.7h6.79"/>
  <rect class="cls-11" x="117.4" y="143.91" width=".5" height=".9"/>
  <rect class="cls-2" x="117.4" y="143.91" width=".5" height=".9"/>
  <polygon class="cls-11" points="151.56 155.11 145.12 157.23 145.12 153.04 151.56 155.11"/>
  <polygon class="cls-3" points="151.56 155.11 145.12 157.23 145.12 153.04 151.56 155.11"/>
  <path class="cls-10" d="M243.18,130.68c10.44,8.1,17.05,8.1,20.97,8.1,6.3,0,14.67-8.1,20.97-8.1,4.01,0,10.53,0,21.06,8.1v40.72c-10.53-8.15-17.05-8.15-21.06-8.15-6.3,0-14.67,8.15-20.97,8.15-3.92,0-10.53,0-20.97-8.15v-40.68Z"/>
  <path class="cls-1" d="M243.18,130.68c10.44,8.1,17.05,8.1,20.97,8.1,6.3,0,14.67-8.1,20.97-8.1,4.01,0,10.53,0,21.06,8.1v40.72c-10.53-8.15-17.05-8.15-21.06-8.15-6.3,0-14.67,8.15-20.97,8.15-3.92,0-10.53,0-20.97-8.15v-40.68Z"/>
  <path class="cls-11" d="M255.7,145.42c-.14-1.33-3.42-1.5-3.44,.06,.39,2.08,4.39,.39,4.53,3.31,.08,2.17-3.36,2.42-4.86,1.53-.47-.28-.78-.72-.92-1.28l.92-.19c.14,1.56,3.92,1.75,3.92-.03,0-2.17-4.3-.39-4.5-3.28-.14-2.28,4.03-2.33,4.97-.94,.14,.19,.22,.44,.31,.69l-.92,.14Z"/>
  <path class="cls-11" d="M257.9,150.67v-5.28h.89v5.28h-.89Zm0-6.42v-.83h.89v.83h-.89Z"/>
  <path class="cls-11" d="M265.26,145.98c-1.86,.08-1.06,2.92-1.22,4.69h-.86v-3.36c0-.81-.14-1.39-.97-1.33-1.83,.11-1.06,2.89-1.22,4.69h-.86l-.03-5.28h.83c.03,.28-.03,.67,.06,.89,.28-1.22,2.75-1.39,2.97,0,.31-.58,.75-.97,1.61-1,2.36-.06,1.31,3.31,1.53,5.39h-.86v-3.36c0-.81-.14-1.36-.97-1.33Z"/>
  <path class="cls-11" d="M273.48,150.12c1.11,0,1.25-.94,1.25-2.08s-.17-2.03-1.25-2.06c-1.17,0-1.42,.89-1.42,2.11s.28,2.03,1.42,2.03Zm.22-4.83c1.53,.03,1.94,1.14,1.94,2.72s-.44,2.72-1.94,2.78c-.86,0-1.36-.36-1.67-.94l.03,2.92h-.89l-.03-7.36h.86l.06,.83c.28-.58,.78-.94,1.64-.94Z"/>
  <path class="cls-11" d="M277.4,149.2c0,.56,.33,.92,.89,.92,1.14-.08,1.75-.81,1.67-2.06-1.19,.06-2.56-.14-2.56,1.14Zm2.58,.47c-.42,.58-.86,1.14-1.89,1.11-1-.03-1.61-.58-1.61-1.58-.03-1.78,1.75-1.75,3.47-1.75,.08-.97-.25-1.5-1.14-1.5-.67,.03-1.14,.19-1.17,.86l-.92-.08c.14-1.03,.92-1.44,2.11-1.44s2,.56,2,1.78v2.28c-.03,.56,.19,.89,.78,.75v.56c-.86,.25-1.69-.06-1.64-.97Z"/>
  <path class="cls-11" d="M284.79,146.15c-2.17-.44-1.47,2.53-1.58,4.53h-.89l-.03-5.28h.83c.03,.33-.03,.81,.06,1.08,.17-.75,.64-1.36,1.61-1.14v.81Z"/>
  <path class="cls-11" d="M286.26,149.2c0,.56,.33,.92,.89,.92,1.14-.08,1.75-.81,1.67-2.06-1.19,.06-2.56-.14-2.56,1.14Zm2.58,.47c-.42,.58-.86,1.14-1.89,1.11-1-.03-1.61-.58-1.61-1.58-.03-1.78,1.75-1.75,3.47-1.75,.08-.97-.25-1.5-1.14-1.5-.67,.03-1.14,.19-1.17,.86l-.92-.08c.14-1.03,.92-1.44,2.11-1.44s2,.56,2,1.78v2.28c-.03,.56,.19,.89,.78,.75v.56c-.86,.25-1.69-.06-1.64-.97Z"/>
  <path class="cls-11" d="M296.32,145.98c-1.86,.08-1.06,2.92-1.22,4.69h-.86v-3.36c0-.81-.14-1.39-.97-1.33-1.83,.11-1.06,2.89-1.22,4.69h-.86l-.03-5.28h.83c.03,.28-.03,.67,.06,.89,.28-1.22,2.75-1.39,2.97,0,.31-.58,.75-.97,1.61-1,2.36-.06,1.31,3.31,1.53,5.39h-.86v-3.36c0-.81-.14-1.36-.97-1.33Z"/>
  <path class="cls-11" d="M248.8,162.12c1.11,0,1.25-.94,1.25-2.08s-.17-2.03-1.25-2.06c-1.17,0-1.42,.89-1.42,2.11s.28,2.03,1.42,2.03Zm.22-4.83c1.53,.03,1.94,1.14,1.94,2.72s-.44,2.72-1.94,2.78c-.86,0-1.36-.36-1.67-.94l.03,2.92h-.89l-.03-7.36h.86l.06,.83c.28-.58,.78-.94,1.64-.94Z"/>
  <path class="cls-11" d="M255.61,159.54c.17-1.67-2.11-2.14-2.69-.78-.08,.19-.17,.47-.17,.78h2.86Zm-1.44-2.25c1.75,0,2.39,1.17,2.33,2.94h-3.75c0,1.11,.39,1.86,1.47,1.89,.72,.03,1.19-.33,1.36-.81l.78,.22c-.31,.78-1.03,1.25-2.14,1.25-1.61,0-2.44-1.03-2.42-2.78,.03-1.69,.72-2.72,2.36-2.72Z"/>
  <path class="cls-11" d="M260.11,158.15c-2.17-.44-1.47,2.53-1.58,4.53h-.89l-.03-5.28h.83c.03,.33-.03,.81,.06,1.08,.17-.75,.64-1.36,1.61-1.14v.81Z"/>
  <path class="cls-11" d="M266.08,157.98c-1.86,.08-1.06,2.92-1.22,4.69h-.86v-3.36c0-.81-.14-1.39-.97-1.33-1.83,.11-1.06,2.89-1.22,4.69h-.86l-.03-5.28h.83c.03,.28-.03,.67,.06,.89,.28-1.22,2.75-1.39,2.97,0,.31-.58,.75-.97,1.61-1,2.36-.06,1.31,3.31,1.53,5.39h-.86v-3.36c0-.81-.14-1.36-.97-1.33Z"/>
  <path class="cls-11" d="M270.88,162.79c-2.47,.11-1.5-3.22-1.69-5.39h.89v3.33c0,.86,.19,1.39,1.08,1.36,2-.06,1.25-2.81,1.39-4.69h.86l.03,5.28h-.83c-.03-.28,.03-.69-.06-.92-.31,.61-.78,1-1.67,1.03Z"/>
  <path class="cls-11" d="M275.75,161.37c-.06,.67,.5,.81,1.06,.61v.67c-.92,.28-1.94,.14-1.94-1.08v-3.53h-.61v-.64h.67l.25-1.19h.58v1.19h.97v.64h-.97v3.33Z"/>
  <path class="cls-11" d="M278.22,161.2c0,.56,.33,.92,.89,.92,1.14-.08,1.75-.81,1.67-2.06-1.19,.06-2.56-.14-2.56,1.14Zm2.58,.47c-.42,.58-.86,1.14-1.89,1.11-1-.03-1.61-.58-1.61-1.58-.03-1.78,1.75-1.75,3.47-1.75,.08-.97-.25-1.5-1.14-1.5-.67,.03-1.14,.19-1.17,.86l-.92-.08c.14-1.03,.92-1.44,2.11-1.44s2,.56,2,1.78v2.28c-.03,.56,.19,.89,.78,.75v.56c-.86,.25-1.69-.06-1.64-.97Z"/>
  <path class="cls-11" d="M284.08,161.37c-.06,.67,.5,.81,1.06,.61v.67c-.92,.28-1.94,.14-1.94-1.08v-3.53h-.61v-.64h.67l.25-1.19h.58v1.19h.97v.64h-.97v3.33Z"/>
  <path class="cls-11" d="M285.88,162.67v-5.28h.89v5.28h-.89Zm0-6.42v-.83h.89v.83h-.89Z"/>
  <path class="cls-11" d="M290.16,162.12c1.22,.03,1.47-.86,1.47-2.08s-.22-2.08-1.42-2.08-1.47,.89-1.47,2.08,.28,2.06,1.42,2.08Zm.03-4.83c1.72-.03,2.36,1.03,2.36,2.75,.03,1.75-.75,2.75-2.39,2.75s-2.31-1.08-2.33-2.75c0-1.83,.78-2.75,2.36-2.75Z"/>
  <path class="cls-11" d="M296.21,157.29c2.47-.11,1.47,3.22,1.67,5.39h-.89v-3.36c0-.86-.22-1.36-1.08-1.33-2,.06-1.22,2.83-1.36,4.69h-.89l-.03-5.28h.83c.03,.28-.03,.67,.06,.89,.31-.61,.81-.97,1.69-1Z"/>
  <path class="cls-11" d="M302.27,158.7c-.08-.94-2.39-1.06-2.42,0,.42,1.47,3.19,.33,3.31,2.5,.11,2.17-4.17,2.06-4.36,.22l.78-.14c.11,1,2.69,1.25,2.72,0-.28-1.56-3.14-.42-3.28-2.5-.11-1.58,2.28-1.75,3.39-1.17,.33,.19,.58,.53,.67,.97l-.81,.11Z"/>
  <path class="cls-9" d="M333.18,137.2c0-2.7,2.7-2.7,2.7-2.7h57.6c2.7,0,2.7,2.7,2.7,2.7v39.6c0,2.7-2.7,2.7-2.7,2.7h-57.6c-2.7,0-2.7-2.7-2.7-2.7v-39.6Z"/>
  <path class="cls-1" d="M333.18,137.2c0-2.7,2.7-2.7,2.7-2.7h57.6c2.7,0,2.7,2.7,2.7,2.7v39.6c0,2.7-2.7,2.7-2.7,2.7h-57.6c-2.7,0-2.7-2.7-2.7-2.7v-39.6Z"/>
  <path class="cls-11" d="M347.01,152.5c2.47,.22,4.06-.44,4.06-2.75s-1.67-2.81-4.06-2.64v5.39Zm-.92-6.14c3.28-.19,6,.22,5.92,3.39-.08,2.17-1.19,3.5-3.36,3.5h-2.56v-6.89Z"/>
  <path class="cls-11" d="M353.12,153.25v-5.28h.89v5.28h-.89Zm0-6.42v-.83h.89v.83h-.89Z"/>
  <path class="cls-11" d="M358.4,149.28c-.08-.94-2.39-1.06-2.42,0,.42,1.47,3.19,.33,3.31,2.5,.11,2.17-4.17,2.06-4.36,.22l.78-.14c.11,1,2.69,1.25,2.72,0-.28-1.56-3.14-.42-3.28-2.5-.11-1.58,2.28-1.75,3.39-1.17,.33,.19,.58,.53,.67,.97l-.81,.11Z"/>
  <path class="cls-11" d="M362.62,152.69c1.11,0,1.25-.94,1.25-2.08s-.17-2.03-1.25-2.06c-1.17,0-1.42,.89-1.42,2.11s.28,2.03,1.42,2.03Zm.22-4.83c1.53,.03,1.94,1.14,1.94,2.72s-.44,2.72-1.94,2.78c-.86,0-1.36-.36-1.67-.94l.03,2.92h-.89l-.03-7.36h.86l.06,.83c.28-.58,.78-.94,1.64-.94Z"/>
  <path class="cls-11" d="M366.54,151.78c0,.56,.33,.92,.89,.92,1.14-.08,1.75-.81,1.67-2.06-1.19,.06-2.56-.14-2.56,1.14Zm2.58,.47c-.42,.58-.86,1.14-1.89,1.11-1-.03-1.61-.58-1.61-1.58-.03-1.78,1.75-1.75,3.47-1.75,.08-.97-.25-1.5-1.14-1.5-.67,.03-1.14,.19-1.17,.86l-.92-.08c.14-1.03,.92-1.44,2.11-1.44s2,.56,2,1.78v2.28c-.03,.56,.19,.89,.78,.75v.56c-.86,.25-1.69-.06-1.64-.97Z"/>
  <path class="cls-11" d="M372.4,151.94c-.06,.67,.5,.81,1.06,.61v.67c-.92,.28-1.94,.14-1.94-1.08v-3.53h-.61v-.64h.67l.25-1.19h.58v1.19h.97v.64h-.97v3.33Z"/>
  <path class="cls-11" d="M376.2,148.55c-1.11,0-1.33,.92-1.33,2.03s.25,2.08,1.33,2.08c.67,0,1.14-.39,1.19-1.06l.89,.06c-.17,1.03-.86,1.69-2.06,1.69-1.64,0-2.11-1.14-2.28-2.75-.28-2.58,2.81-3.64,4.08-1.78,.11,.19,.14,.39,.19,.61l-.89,.08c-.11-.58-.44-.97-1.14-.97Z"/>
  <path class="cls-11" d="M381.48,148.55c-2,0-1.22,2.83-1.36,4.69h-.89v-7.25h.89l-.03,2.86c.33-.58,.78-1,1.69-1,2.47,0,1.47,3.22,1.67,5.39h-.89v-3.36c.06-.89-.22-1.36-1.08-1.33Z"/>
  <path class="cls-11" d="M343.48,161.27c-.08-.94-2.39-1.06-2.42,0,.42,1.47,3.19,.33,3.31,2.5,.11,2.17-4.17,2.06-4.36,.22l.78-.14c.11,1,2.69,1.25,2.72,0-.28-1.56-3.14-.42-3.28-2.5-.11-1.58,2.28-1.75,3.39-1.17,.33,.19,.58,.53,.67,.97l-.81,.11Z"/>
  <path class="cls-11" d="M345.4,165.24v-5.28h.89v5.28h-.89Zm0-6.42v-.83h.89v.83h-.89Z"/>
  <path class="cls-11" d="M352.76,160.55c-1.86,.08-1.06,2.92-1.22,4.69h-.86v-3.36c0-.81-.14-1.39-.97-1.33-1.83,.11-1.06,2.89-1.22,4.69h-.86l-.03-5.28h.83c.03,.28-.03,.67,.06,.89,.28-1.22,2.75-1.39,2.97,0,.31-.58,.75-.97,1.61-1,2.36-.06,1.31,3.31,1.53,5.39h-.86v-3.36c0-.81-.14-1.36-.97-1.33Z"/>
  <path class="cls-11" d="M357.57,165.36c-2.47,.11-1.5-3.22-1.69-5.39h.89v3.33c0,.86,.19,1.39,1.08,1.36,2-.06,1.25-2.81,1.39-4.69h.86l.03,5.28h-.83c-.03-.28,.03-.69-.06-.92-.31,.61-.78,1-1.67,1.03Z"/>
  <polygon class="cls-11" points="361.45 165.24 361.45 161.62 361.45 158 362.34 158 362.34 161.62 362.34 165.24 361.45 165.24"/>
  <path class="cls-11" d="M364.32,163.77c0,.56,.33,.92,.89,.92,1.14-.08,1.75-.81,1.67-2.06-1.19,.06-2.56-.14-2.56,1.14Zm2.58,.47c-.42,.58-.86,1.14-1.89,1.11-1-.03-1.61-.58-1.61-1.58-.03-1.78,1.75-1.75,3.47-1.75,.08-.97-.25-1.5-1.14-1.5-.67,.03-1.14,.19-1.17,.86l-.92-.08c.14-1.03,.92-1.44,2.11-1.44s2,.56,2,1.78v2.28c-.03,.56,.19,.89,.78,.75v.56c-.86,.25-1.69-.06-1.64-.97Z"/>
  <path class="cls-11" d="M370.18,163.94c-.06,.67,.5,.81,1.06,.61v.67c-.92,.28-1.94,.14-1.94-1.08v-3.53h-.61v-.64h.67l.25-1.19h.58v1.19h.97v.64h-.97v3.33Z"/>
  <path class="cls-11" d="M371.98,165.24v-5.28h.89v5.28h-.89Zm0-6.42v-.83h.89v.83h-.89Z"/>
  <path class="cls-11" d="M376.26,164.69c1.22,.03,1.47-.86,1.47-2.08s-.22-2.08-1.42-2.08-1.47,.89-1.47,2.08,.28,2.06,1.42,2.08Zm.03-4.83c1.72-.03,2.36,1.03,2.36,2.75,.03,1.75-.75,2.75-2.39,2.75s-2.31-1.08-2.33-2.75c0-1.83,.78-2.75,2.36-2.75Z"/>
  <path class="cls-11" d="M382.31,159.86c2.47-.11,1.47,3.22,1.67,5.39h-.89v-3.36c0-.86-.22-1.36-1.08-1.33-2,.06-1.22,2.83-1.36,4.69h-.89l-.03-5.28h.83c.03,.28-.03,.67,.06,.89,.31-.61,.81-.97,1.69-1Z"/>
  <path class="cls-11" d="M388.37,161.27c-.08-.94-2.39-1.06-2.42,0,.42,1.47,3.19,.33,3.31,2.5,.11,2.17-4.17,2.06-4.36,.22l.78-.14c.11,1,2.69,1.25,2.72,0-.28-1.56-3.14-.42-3.28-2.5-.11-1.58,2.28-1.75,3.39-1.17,.33,.19,.58,.53,.67,.97l-.81,.11Z"/>
  <path class="cls-8" d="M63,64.87c0-2.7,2.67-3.07,2.67-3.07l48.67-6.74c2.65-.36,2.65,2.34,2.65,2.34v39.6c0,2.7-2.7,2.7-2.7,2.7h-48.6c-2.7,0-2.7-2.7-2.7-2.7v-32.13Z"/>
  <path class="cls-1" d="M63,64.87c0-2.7,2.67-3.07,2.67-3.07l48.67-6.74c2.65-.36,2.65,2.34,2.65,2.34v39.6c0,2.7-2.7,2.7-2.7,2.7h-48.6c-2.7,0-2.7-2.7-2.7-2.7v-32.13Z"/>
  <polygon class="cls-11" points="70.97 70.49 70.97 73.54 70.97 76.6 70.03 76.6 70.03 73.54 70.03 70.49 67.67 70.49 67.67 70.1 67.67 69.71 73.33 69.71 73.33 70.1 73.33 70.49 70.97 70.49"/>
  <path class="cls-11" d="M76.33,72.07c-2.17-.44-1.47,2.53-1.58,4.53h-.89l-.03-5.28h.83c.03,.33-.03,.81,.06,1.08,.17-.75,.64-1.36,1.61-1.14v.81Z"/>
  <path class="cls-11" d="M80.69,73.46c.17-1.67-2.11-2.14-2.69-.78-.08,.19-.17,.47-.17,.78h2.86Zm-1.44-2.25c1.75,0,2.39,1.17,2.33,2.94h-3.75c0,1.11,.39,1.86,1.47,1.89,.72,.03,1.19-.33,1.36-.81l.78,.22c-.31,.78-1.03,1.25-2.14,1.25-1.61,0-2.44-1.03-2.42-2.78,.03-1.69,.72-2.72,2.36-2.72Z"/>
  <path class="cls-11" d="M83.36,75.13c0,.56,.33,.92,.89,.92,1.14-.08,1.75-.81,1.67-2.06-1.19,.06-2.56-.14-2.56,1.14Zm2.58,.47c-.42,.58-.86,1.14-1.89,1.11-1-.03-1.61-.58-1.61-1.58-.03-1.78,1.75-1.75,3.47-1.75,.08-.97-.25-1.5-1.14-1.5-.67,.03-1.14,.19-1.17,.86l-.92-.08c.14-1.03,.92-1.44,2.11-1.44s2,.56,2,1.78v2.28c-.03,.56,.19,.89,.78,.75v.56c-.86,.25-1.69-.06-1.64-.97Z"/>
  <path class="cls-11" d="M89.22,75.29c-.06,.67,.5,.81,1.06,.61v.67c-.92,.28-1.94,.14-1.94-1.08v-3.53h-.61v-.64h.67l.25-1.19h.58v1.19h.97v.64h-.97v3.33Z"/>
  <path class="cls-11" d="M96.19,71.91c-1.86,.08-1.06,2.92-1.22,4.69h-.86v-3.36c0-.81-.14-1.39-.97-1.33-1.83,.11-1.06,2.89-1.22,4.69h-.86l-.03-5.28h.83c.03,.28-.03,.67,.06,.89,.28-1.22,2.75-1.39,2.97,0,.31-.58,.75-.97,1.61-1,2.36-.06,1.31,3.31,1.53,5.39h-.86v-3.36c0-.81-.14-1.36-.97-1.33Z"/>
  <path class="cls-11" d="M102.88,73.46c.17-1.67-2.11-2.14-2.69-.78-.08,.19-.17,.47-.17,.78h2.86Zm-1.44-2.25c1.75,0,2.39,1.17,2.33,2.94h-3.75c0,1.11,.39,1.86,1.47,1.89,.72,.03,1.19-.33,1.36-.81l.78,.22c-.31,.78-1.03,1.25-2.14,1.25-1.61,0-2.44-1.03-2.42-2.78,.03-1.69,.72-2.72,2.36-2.72Z"/>
  <path class="cls-11" d="M107.47,71.21c2.47-.11,1.47,3.22,1.67,5.39h-.89v-3.36c0-.86-.22-1.36-1.08-1.33-2,.06-1.22,2.83-1.36,4.69h-.89l-.03-5.28h.83c.03,.28-.03,.67,.06,.89,.31-.61,.81-.97,1.69-1Z"/>
  <path class="cls-11" d="M111.41,75.29c-.06,.67,.5,.81,1.06,.61v.67c-.92,.28-1.94,.14-1.94-1.08v-3.53h-.61v-.64h.67l.25-1.19h.58v1.19h.97v.64h-.97v3.33Z"/>
  <path class="cls-11" d="M72.39,84.63c-.08-.94-2.39-1.06-2.42,0,.42,1.47,3.19,.33,3.31,2.5,.11,2.17-4.17,2.06-4.36,.22l.78-.14c.11,1,2.69,1.25,2.72,0-.28-1.56-3.14-.42-3.28-2.5-.11-1.58,2.28-1.75,3.39-1.17,.33,.19,.58,.53,.67,.97l-.81,.11Z"/>
  <path class="cls-11" d="M76.3,83.91c-1.11,0-1.33,.92-1.33,2.03s.25,2.08,1.33,2.08c.67,0,1.14-.39,1.19-1.06l.89,.06c-.17,1.03-.86,1.69-2.06,1.69-1.64,0-2.11-1.14-2.28-2.75-.28-2.58,2.81-3.64,4.08-1.78,.11,.19,.14,.39,.19,.61l-.89,.08c-.11-.58-.44-.97-1.14-.97Z"/>
  <path class="cls-11" d="M82.86,85.46c.17-1.67-2.11-2.14-2.69-.78-.08,.19-.17,.47-.17,.78h2.86Zm-1.44-2.25c1.75,0,2.39,1.17,2.33,2.94h-3.75c0,1.11,.39,1.86,1.47,1.89,.72,.03,1.19-.33,1.36-.81l.78,.22c-.31,.78-1.03,1.25-2.14,1.25-1.61,0-2.44-1.03-2.42-2.78,.03-1.69,.72-2.72,2.36-2.72Z"/>
  <path class="cls-11" d="M87.44,83.21c2.47-.11,1.47,3.22,1.67,5.39h-.89v-3.36c0-.86-.22-1.36-1.08-1.33-2,.06-1.22,2.83-1.36,4.69h-.89l-.03-5.28h.83c.03,.28-.03,.67,.06,.89,.31-.61,.81-.97,1.69-1Z"/>
  <path class="cls-11" d="M91.08,87.13c0,.56,.33,.92,.89,.92,1.14-.08,1.75-.81,1.67-2.06-1.19,.06-2.56-.14-2.56,1.14Zm2.58,.47c-.42,.58-.86,1.14-1.89,1.11-1-.03-1.61-.58-1.61-1.58-.03-1.78,1.75-1.75,3.47-1.75,.08-.97-.25-1.5-1.14-1.5-.67,.03-1.14,.19-1.17,.86l-.92-.08c.14-1.03,.92-1.44,2.11-1.44s2,.56,2,1.78v2.28c-.03,.56,.19,.89,.78,.75v.56c-.86,.25-1.69-.06-1.64-.97Z"/>
  <path class="cls-11" d="M98.47,84.07c-2.17-.44-1.47,2.53-1.58,4.53h-.89l-.03-5.28h.83c.03,.33-.03,.81,.06,1.08,.17-.75,.64-1.36,1.61-1.14v.81Z"/>
  <path class="cls-11" d="M99.27,88.6v-5.28h.89v5.28h-.89Zm0-6.42v-.83h.89v.83h-.89Z"/>
  <path class="cls-11" d="M103.55,88.05c1.22,.03,1.47-.86,1.47-2.08s-.22-2.08-1.42-2.08-1.47,.89-1.47,2.08,.28,2.06,1.42,2.08Zm.03-4.83c1.72-.03,2.36,1.03,2.36,2.75,.03,1.75-.75,2.75-2.39,2.75s-2.31-1.08-2.33-2.75c0-1.83,.78-2.75,2.36-2.75Z"/>
  <path class="cls-11" d="M110.11,84.63c-.08-.94-2.39-1.06-2.42,0,.42,1.47,3.19,.33,3.31,2.5,.11,2.17-4.17,2.06-4.36,.22l.78-.14c.11,1,2.69,1.25,2.72,0-.28-1.56-3.14-.42-3.28-2.5-.11-1.58,2.28-1.75,3.39-1.17,.33,.19,.58,.53,.67,.97l-.81,.11Z"/>
  <path class="cls-3" d="M117.67,77.31h14.72c2.7-.05,2.7,2.65,2.7,2.65v72.45c0,2.7,2.7,2.7,2.7,2.7h6.88"/>
  <rect class="cls-11" x="117.22" y="76.86" width=".45" height=".9"/>
  <rect class="cls-2" x="117.22" y="76.86" width=".45" height=".9"/>
  <polygon class="cls-11" points="151.56 155.11 145.12 157.23 145.12 153.04 151.56 155.11"/>
  <polygon class="cls-3" points="151.56 155.11 145.12 157.23 145.12 153.04 151.56 155.11"/>
  <path class="cls-10" d="M423.18,134.5c9.72,7.47,15.84,7.47,19.48,7.47,5.85,0,13.64-7.47,19.49-7.47,3.69,0,9.76,0,19.53,7.47v37.53c-9.77-7.51-15.84-7.51-19.53-7.51-5.85,0-13.64,7.51-19.49,7.51-3.64,0-9.76,0-19.48-7.51v-37.49Z"/>
  <path class="cls-1" d="M423.18,134.5c9.72,7.47,15.84,7.47,19.48,7.47,5.85,0,13.64-7.47,19.49-7.47,3.69,0,9.76,0,19.53,7.47v37.53c-9.77-7.51-15.84-7.51-19.53-7.51-5.85,0-13.64,7.51-19.49,7.51-3.64,0-9.76,0-19.48-7.51v-37.49Z"/>
  <path class="cls-11" d="M432.9,153.43c-.14-1.33-3.42-1.5-3.44,.06,.39,2.08,4.39,.39,4.53,3.31,.08,2.17-3.36,2.42-4.86,1.53-.47-.28-.78-.72-.92-1.28l.92-.19c.14,1.56,3.92,1.75,3.92-.03,0-2.17-4.3-.39-4.5-3.28-.14-2.28,4.03-2.33,4.97-.94,.14,.19,.22,.44,.31,.69l-.92,.14Z"/>
  <path class="cls-11" d="M435.1,158.67v-5.28h.89v5.28h-.89Zm0-6.42v-.83h.89v.83h-.89Z"/>
  <path class="cls-11" d="M442.46,153.98c-1.86,.08-1.06,2.92-1.22,4.69h-.86v-3.36c0-.81-.14-1.39-.97-1.33-1.83,.11-1.06,2.89-1.22,4.69h-.86l-.03-5.28h.83c.03,.28-.03,.67,.06,.89,.28-1.22,2.75-1.39,2.97,0,.31-.58,.75-.97,1.61-1,2.36-.06,1.31,3.31,1.53,5.39h-.86v-3.36c0-.81-.14-1.36-.97-1.33Z"/>
  <path class="cls-11" d="M450.87,154.15c-2.17-.44-1.47,2.53-1.58,4.53h-.89l-.03-5.28h.83c.03,.33-.03,.81,.06,1.08,.17-.75,.64-1.36,1.61-1.14v.81Z"/>
  <path class="cls-11" d="M455.23,155.54c.17-1.67-2.11-2.14-2.69-.78-.08,.19-.17,.47-.17,.78h2.86Zm-1.44-2.25c1.75,0,2.39,1.17,2.33,2.94h-3.75c0,1.11,.39,1.86,1.47,1.89,.72,.03,1.19-.33,1.36-.81l.78,.22c-.31,.78-1.03,1.25-2.14,1.25-1.61,0-2.44-1.03-2.42-2.78,.03-1.69,.72-2.72,2.36-2.72Z"/>
  <path class="cls-11" d="M460.31,154.7c-.08-.94-2.39-1.06-2.42,0,.42,1.47,3.19,.33,3.31,2.5,.11,2.17-4.17,2.06-4.36,.22l.78-.14c.11,1,2.69,1.25,2.72,0-.28-1.56-3.14-.42-3.28-2.5-.11-1.58,2.28-1.75,3.39-1.17,.33,.19,.58,.53,.67,.97l-.81,.11Z"/>
  <path class="cls-11" d="M463.9,158.79c-2.47,.11-1.5-3.22-1.69-5.39h.89v3.33c0,.86,.19,1.39,1.08,1.36,2-.06,1.25-2.81,1.39-4.69h.86l.03,5.28h-.83c-.03-.28,.03-.69-.06-.92-.31,.61-.78,1-1.67,1.03Z"/>
  <polygon class="cls-11" points="467.79 158.67 467.79 155.05 467.79 151.43 468.67 151.43 468.67 155.05 468.67 158.67 467.79 158.67"/>
  <path class="cls-11" d="M470.95,157.37c-.06,.67,.5,.81,1.06,.61v.67c-.92,.28-1.94,.14-1.94-1.08v-3.53h-.61v-.64h.67l.25-1.19h.58v1.19h.97v.64h-.97v3.33Z"/>
  <path class="cls-11" d="M475.84,154.7c-.08-.94-2.39-1.06-2.42,0,.42,1.47,3.19,.33,3.31,2.5,.11,2.17-4.17,2.06-4.36,.22l.78-.14c.11,1,2.69,1.25,2.72,0-.28-1.56-3.14-.42-3.28-2.5-.11-1.58,2.28-1.75,3.39-1.17,.33,.19,.58,.53,.67,.97l-.81,.11Z"/>
  <path class="cls-6" d="M360,213.93c0-2.7,2.7-2.7,2.7-2.7h111.82c2.65,0,2.65,2.7,2.65,2.7l.05,80.24c-.05,2.65-2.75,2.65-2.75,2.65l-111.78,.05c-2.7-.05-2.7-2.75-2.7-2.75v-80.19Z"/>
  <path class="cls-1" d="M360,213.93c0-2.7,2.7-2.7,2.7-2.7h111.82c2.65,0,2.65,2.7,2.65,2.7l.05,80.24c-.05,2.65-2.75,2.65-2.75,2.65l-111.78,.05c-2.7-.05-2.7-2.75-2.7-2.75v-80.19Z"/>
  <path class="cls-10" d="M423.18,220.54c7.47,4.68,12.2,4.68,14.98,4.68,4.5,0,10.49-4.68,14.99-4.68,2.83,0,7.51,0,15.03,4.68v23.4c-7.52-4.68-12.2-4.68-15.03-4.68-4.5,0-10.49,4.68-14.99,4.68-2.79,0-7.51,0-14.98-4.68v-23.4Z"/>
  <path class="cls-1" d="M423.18,220.54c7.47,4.68,12.2,4.68,14.98,4.68,4.5,0,10.49-4.68,14.99-4.68,2.83,0,7.51,0,15.03,4.68v23.4c-7.52-4.68-12.2-4.68-15.03-4.68-4.5,0-10.49,4.68-14.99,4.68-2.79,0-7.51,0-14.98-4.68v-23.4Z"/>
  <path class="cls-11" d="M430.44,235.73c1.44,0,2.03-.97,2.03-2.44,0-1.39-.58-2.39-2-2.39s-2.03,.97-2.03,2.39,.61,2.44,2,2.44Zm.03-5.94c2.22,0,3.47,1.25,3.47,3.5s-1.28,3.58-3.5,3.58-3.44-1.33-3.44-3.58,1.22-3.5,3.47-3.5Z"/>
  <path class="cls-11" d="M436.72,236.87c-2.42,.03-1.61-3.14-1.75-5.39h1.39c.19,1.58-.64,4.17,.92,4.36,1.67-.14,.97-2.69,1.11-4.36h1.39l.03,5.28h-1.31c-.06-.33,.03-.78-.08-1.06-.33,.69-.78,1.17-1.69,1.17Z"/>
  <path class="cls-11" d="M443.64,236.67c-1,.39-2.42,.19-2.42-1.17v-3.11h-.67v-.92h.75l.42-1.25h.86v1.25h1v.92h-1v2.75c-.03,.64,.44,.86,1.06,.69v.83Z"/>
  <path class="cls-11" d="M446.91,235.92c.92,0,1.08-.86,1.11-1.83,0-1.06-.25-1.78-1.11-1.78-1.56,0-1.53,3.61,0,3.61Zm.58-4.55c1.47,0,1.94,1.22,1.94,2.72s-.53,2.72-2.03,2.78c-.86,.03-1.25-.47-1.64-.94,.08,.92,.06,1.92,.06,2.92h-1.39l-.03-7.36h1.33c.06,.28,0,.64,.08,.86,.31-.67,.81-.97,1.67-.97Z"/>
  <path class="cls-11" d="M452.19,236.87c-2.42,.03-1.61-3.14-1.75-5.39h1.39c.19,1.58-.64,4.17,.92,4.36,1.67-.14,.97-2.69,1.11-4.36h1.39l.03,5.28h-1.31c-.06-.33,.03-.78-.08-1.06-.33,.69-.78,1.17-1.69,1.17Z"/>
  <path class="cls-11" d="M459.11,236.67c-1,.39-2.42,.19-2.42-1.17v-3.11h-.67v-.92h.75l.42-1.25h.86v1.25h1v.92h-1v2.75c-.03,.64,.44,.86,1.06,.69v.83Z"/>
  <path class="cls-11" d="M463.02,232.92c.03-.81-1.94-.94-1.97-.11,.42,1.28,3.28,.19,3.31,2.39,.03,2.31-4.55,2.11-4.78,.25l1.19-.19c.11,.53,.56,.69,1.22,.69,.92,.22,1.58-.83,.67-1.14-1.19-.39-2.83-.31-2.89-1.83-.06-2.22,4.28-2.06,4.47-.19l-1.22,.14Z"/>
  <path class="cls-8" d="M369.18,225.45c0-2.7,2.68-3.03,2.68-3.03l39.62-4.98c2.7-.36,2.7,2.34,2.7,2.34v28.8c0,2.7-2.7,2.7-2.7,2.7h-39.6c-2.7,0-2.7-2.7-2.7-2.7v-23.13Z"/>
  <path class="cls-1" d="M369.18,225.45c0-2.7,2.68-3.03,2.68-3.03l39.62-4.98c2.7-.36,2.7,2.34,2.7,2.34v28.8c0,2.7-2.7,2.7-2.7,2.7h-39.6c-2.7,0-2.7-2.7-2.7-2.7v-23.13Z"/>
  <path class="cls-11" d="M387.19,231.88c0,1.92-1.22,2.75-3.08,2.75s-2.92-.81-2.92-2.69v-4.3h1.42v4.19c-.03,1.06,.53,1.64,1.53,1.67,2.5,.03,1.36-3.61,1.61-5.86h1.44v4.25Z"/>
  <path class="cls-11" d="M391.58,230.68c.03-.81-1.94-.94-1.97-.11,.42,1.28,3.28,.19,3.31,2.39,.03,2.31-4.55,2.11-4.78,.25l1.19-.19c.11,.53,.56,.69,1.22,.69,.92,.22,1.58-.83,.67-1.14-1.19-.39-2.83-.31-2.89-1.83-.06-2.22,4.28-2.06,4.47-.19l-1.22,.14Z"/>
  <path class="cls-11" d="M397.22,231.27c.14-1.28-1.58-1.75-1.94-.58-.06,.17-.11,.36-.11,.58h2.06Zm1.25,1.92c-.36,.83-1.03,1.47-2.28,1.44-1.67-.06-2.47-1.03-2.47-2.78s.83-2.72,2.5-2.72,2.31,1.25,2.33,3h-3.39c0,.86,.22,1.53,1.08,1.56,.5,0,.83-.19,.94-.61l1.28,.11Z"/>
  <path class="cls-11" d="M402.63,230.35c-1.08-.33-1.67,.36-1.67,1.58v2.58h-1.39l-.03-5.28h1.31c.06,.36-.03,.81,.08,1.11,.17-.78,.75-1.47,1.69-1.14v1.14Z"/>
  <polygon class="cls-11" points="380.18 246.51 380.18 243.07 380.18 239.63 381.62 239.63 381.62 243.07 381.62 246.51 380.18 246.51"/>
  <path class="cls-11" d="M386.04,241.13c2.42-.03,1.61,3.14,1.75,5.39h-1.39c-.19-1.58,.64-4.36-.94-4.36s-.94,2.69-1.08,4.36h-1.39l-.03-5.28h1.31c.06,.33-.03,.78,.08,1.06,.33-.72,.78-1.14,1.69-1.17Z"/>
  <path class="cls-11" d="M391.54,245.68c.92,0,1.08-.86,1.11-1.83,0-1.06-.25-1.78-1.11-1.78-1.56,0-1.53,3.61,0,3.61Zm.58-4.55c1.47,0,1.94,1.22,1.94,2.72s-.53,2.72-2.03,2.78c-.86,.03-1.25-.47-1.64-.94,.08,.92,.06,1.92,.06,2.92h-1.39l-.03-7.36h1.33c.06,.28,0,.64,.08,.86,.31-.67,.81-.97,1.67-.97Z"/>
  <path class="cls-11" d="M396.82,246.63c-2.42,.03-1.61-3.14-1.75-5.39h1.39c.19,1.58-.64,4.17,.92,4.36,1.67-.14,.97-2.69,1.11-4.36h1.39l.03,5.28h-1.31c-.06-.33,.03-.78-.08-1.06-.33,.69-.78,1.17-1.69,1.17Z"/>
  <path class="cls-11" d="M403.73,246.43c-1,.39-2.42,.19-2.42-1.17v-3.11h-.67v-.92h.75l.42-1.25h.86v1.25h1v.92h-1v2.75c-.03,.64,.44,.86,1.06,.69v.83Z"/>
  <path class="cls-9" d="M369.18,262.84c0-2.7,2.7-2.7,2.7-2.7h39.6c2.7,0,2.7,2.7,2.7,2.7v22.23c0,2.7-2.7,2.7-2.7,2.7h-39.6c-2.7,0-2.7-2.7-2.7-2.7v-22.23Z"/>
  <path class="cls-1" d="M369.18,262.84c0-2.7,2.7-2.7,2.7-2.7h39.6c2.7,0,2.7,2.7,2.7,2.7v22.23c0,2.7-2.7,2.7-2.7,2.7h-39.6c-2.7,0-2.7-2.7-2.7-2.7v-22.23Z"/>
  <polygon class="cls-11" points="372.76 270.32 372.76 271.39 372.76 272.45 376.29 272.45 376.29 273.01 376.29 273.57 372.76 273.57 372.76 274.83 372.76 276.09 371.32 276.09 371.32 272.65 371.32 269.21 376.4 269.21 376.4 269.76 376.4 270.32 372.76 270.32"/>
  <path class="cls-11" d="M379.1,276.2c-2.42,.03-1.61-3.14-1.75-5.39h1.39c.19,1.58-.64,4.17,.92,4.36,1.67-.14,.97-2.69,1.11-4.36h1.39l.03,5.28h-1.31c-.06-.33,.03-.78-.08-1.06-.33,.69-.78,1.17-1.69,1.17Z"/>
  <path class="cls-11" d="M386.57,270.7c2.42-.03,1.61,3.14,1.75,5.39h-1.39c-.19-1.58,.64-4.36-.94-4.36s-.94,2.69-1.08,4.36h-1.39l-.03-5.28h1.31c.06,.33-.03,.78,.08,1.06,.33-.72,.78-1.14,1.69-1.17Z"/>
  <path class="cls-11" d="M394.18,274.34c-.19,1.17-1.06,1.86-2.39,1.86-1.64,0-2.33-1.06-2.5-2.72-.33-3.06,4.28-3.81,4.83-1l-1.36,.06c-.06-.53-.42-.89-.97-.89-.83,0-.97,.78-1.06,1.78-.17,2.06,1.81,2.42,2.06,.83l1.39,.08Z"/>
  <path class="cls-11" d="M397.65,276.01c-1,.39-2.42,.19-2.42-1.17v-3.11h-.67v-.92h.75l.42-1.25h.86v1.25h1v.92h-1v2.75c-.03,.64,.44,.86,1.06,.69v.83Z"/>
  <path class="cls-11" d="M398.45,276.09v-5.28h1.39v5.28h-1.39Zm0-6.22v-1.03h1.39v1.03h-1.39Z"/>
  <path class="cls-11" d="M403.56,275.26c.97,0,1.25-.78,1.25-1.81,0-1.11-.28-1.81-1.19-1.81s-1.25,.72-1.25,1.81c0,1,.28,1.81,1.19,1.81Zm.03-4.55c1.78,0,2.67,1,2.67,2.75s-.97,2.75-2.69,2.75-2.64-1-2.64-2.75,.94-2.75,2.67-2.75Z"/>
  <path class="cls-11" d="M410.37,270.7c2.42-.03,1.61,3.14,1.75,5.39h-1.39c-.19-1.58,.64-4.36-.94-4.36s-.94,2.69-1.08,4.36h-1.39l-.03-5.28h1.31c.06,.33-.03,.78,.08,1.06,.33-.72,.78-1.14,1.69-1.17Z"/>
  <path class="cls-5" d="M468.18,285.66c0,1.53-10.08,2.79-22.5,2.79s-22.5-1.26-22.5-2.79v-22.68c0-1.58,10.08-2.83,22.5-2.83s22.5,1.26,22.5,2.83v22.68Z"/>
  <path class="cls-1" d="M468.18,285.66c0,1.53-10.08,2.79-22.5,2.79s-22.5-1.26-22.5-2.79v-22.68c0-1.58,10.08-2.83,22.5-2.83s22.5,1.26,22.5,2.83v22.68Z"/>
  <path class="cls-1" d="M468.18,262.98c0,1.58-10.08,2.83-22.5,2.83s-22.5-1.26-22.5-2.83"/>
  <path class="cls-11" d="M429.78,278.41c2.06,.19,3.25-.5,3.25-2.39s-1.25-2.44-3.25-2.28v4.67Zm-1.44-5.78c3.33-.19,6.19,.14,6.14,3.39-.03,2.22-1.22,3.5-3.36,3.5h-2.78v-6.89Z"/>
  <path class="cls-11" d="M437.22,278.66c.81,0,1.19-.67,1.17-1.58-.89,0-1.83-.08-1.81,.83,0,.47,.22,.75,.64,.75Zm1.33-.08c-.44,.53-.83,1.08-1.78,1.06-1.03-.03-1.61-.56-1.61-1.61-.03-1.67,1.53-1.75,3.22-1.69,.03-.72-.08-1.31-.78-1.31-.5,.03-.72,.25-.78,.75l-1.44-.06c.19-1.06,1-1.61,2.28-1.58,1.28,.03,2.06,.61,2.08,1.89l.03,2.28c-.03,.39,.33,.5,.69,.42v.75c-.83,.22-1.97,.14-1.92-.89Z"/>
  <path class="cls-11" d="M443.61,279.44c-1,.39-2.42,.19-2.42-1.17v-3.11h-.67v-.92h.75l.42-1.25h.86v1.25h1v.92h-1v2.75c-.03,.64,.44,.86,1.06,.69v.83Z"/>
  <path class="cls-11" d="M446.08,278.66c.81,0,1.19-.67,1.17-1.58-.89,0-1.83-.08-1.81,.83,0,.47,.22,.75,.64,.75Zm1.33-.08c-.44,.53-.83,1.08-1.78,1.06-1.03-.03-1.61-.56-1.61-1.61-.03-1.67,1.53-1.75,3.22-1.69,.03-.72-.08-1.31-.78-1.31-.5,.03-.72,.25-.78,.75l-1.44-.06c.19-1.06,1-1.61,2.28-1.58,1.28,.03,2.06,.61,2.08,1.89l.03,2.28c-.03,.39,.33,.5,.69,.42v.75c-.83,.22-1.97,.14-1.92-.89Z"/>
  <path class="cls-11" d="M453.08,275.69c.03-.81-1.94-.94-1.97-.11,.42,1.28,3.28,.19,3.31,2.39,.03,2.31-4.55,2.11-4.78,.25l1.19-.19c.11,.53,.56,.69,1.22,.69,.92,.22,1.58-.83,.67-1.14-1.19-.39-2.83-.31-2.89-1.83-.06-2.22,4.28-2.06,4.47-.19l-1.22,.14Z"/>
  <path class="cls-11" d="M458.72,276.27c.14-1.28-1.58-1.75-1.94-.58-.06,.17-.11,.36-.11,.58h2.06Zm1.25,1.92c-.36,.83-1.03,1.47-2.28,1.44-1.67-.06-2.47-1.03-2.47-2.78s.83-2.72,2.5-2.72,2.31,1.25,2.33,3h-3.39c0,.86,.22,1.53,1.08,1.56,.5,0,.83-.19,.94-.61l1.28,.11Z"/>
  <path class="cls-11" d="M463.58,279.44c-1,.39-2.42,.19-2.42-1.17v-3.11h-.67v-.92h.75l.42-1.25h.86v1.25h1v.92h-1v2.75c-.03,.64,.44,.86,1.06,.69v.83Z"/>
  <path class="cls-7" d="M364.68,191.56c0-2.7,2.7-2.7,2.7-2.7h102.6c2.7,0,2.7,2.7,2.7,2.7v21.6c0,2.7-2.7,2.7-2.7,2.7h-102.6c-2.7,0-2.7-2.7-2.7-2.7v-21.6Z"/>
  <path class="cls-4" d="M364.68,191.56c0-2.7,2.7-2.7,2.7-2.7h102.6c2.7,0,2.7,2.7,2.7,2.7v21.6c0,2.7-2.7,2.7-2.7,2.7h-102.6c-2.7,0-2.7-2.7-2.7-2.7v-21.6Z"/>
  <polygon class="cls-11" points="398.21 204.93 398.21 200.8 398.21 196.66 399.95 196.66 399.95 200.13 399.95 203.6 404.38 203.6 404.38 204.26 404.38 204.93 398.21 204.93"/>
  <path class="cls-11" d="M409.38,201.03c.17-1.53-1.9-2.1-2.33-.7-.07,.2-.13,.43-.13,.7h2.47Zm1.5,2.3c-.43,1-1.23,1.77-2.73,1.73-2-.07-2.97-1.23-2.97-3.33s1-3.27,3-3.27,2.77,1.5,2.8,3.6h-4.07c0,1.03,.27,1.83,1.3,1.87,.6,0,1-.23,1.13-.73l1.53,.13Z"/>
  <path class="cls-11" d="M414.88,203.76c1.07,0,1.37-.9,1.37-2.1s-.3-2.07-1.33-2.07-1.3,.97-1.33,2.1c0,1.2,.3,2.07,1.3,2.07Zm3,.97c.37,2.93-4,3.53-5.47,1.73-.13-.2-.2-.43-.27-.7l1.63-.2c.1,.53,.53,.8,1.13,.83,1.33,0,1.4-1.23,1.33-2.63-.37,.73-1,1.17-2.03,1.17-1.77,0-2.33-1.43-2.33-3.23s.6-3.2,2.43-3.23c1,0,1.53,.47,1.97,1.13l.07-1h1.57l-.03,6.13Z"/>
  <path class="cls-11" d="M423.34,201.03c.17-1.53-1.9-2.1-2.33-.7-.07,.2-.13,.43-.13,.7h2.47Zm1.5,2.3c-.43,1-1.23,1.77-2.73,1.73-2-.07-2.97-1.23-2.97-3.33s1-3.27,3-3.27,2.77,1.5,2.8,3.6h-4.07c0,1.03,.27,1.83,1.3,1.87,.6,0,1-.23,1.13-.73l1.53,.13Z"/>
  <path class="cls-11" d="M429.84,198.46c2.9-.03,1.93,3.77,2.1,6.47h-1.67c-.23-1.9,.77-5.23-1.13-5.23s-1.13,3.23-1.3,5.23h-1.67l-.03-6.33h1.57c.07,.4-.03,.93,.1,1.27,.4-.87,.93-1.37,2.03-1.4Z"/>
  <path class="cls-11" d="M436.14,203.93c1.1,0,1.33-1,1.37-2.2,.03-1.23-.3-2.13-1.37-2.13s-1.27,1-1.3,2.17c0,1.43,.43,2.17,1.3,2.17Zm-.57-5.47c1.03-.03,1.53,.5,1.93,1.13l-.03-3.37h1.67l.03,8.7h-1.6c-.07-.33,0-.77-.1-1.03-.37,.77-.97,1.17-2.03,1.17-1.73,0-2.27-1.5-2.3-3.3,0-1.87,.63-3.23,2.43-3.3Z"/>
  <rect class="cls-11" x="396.81" y="205.57" width="43.73" height="1.26"/>
  <path class="cls-8" d="M63.18,264.42c0-2.69,2.68-2.97,2.68-2.97l48.62-5.26c2.7-.27,2.7,2.43,2.7,2.43v29.65c0,2.72-2.7,2.72-2.7,2.72l-48.6-.02c-2.7,.02-2.7-2.68-2.7-2.68v-23.87Z"/>
  <path class="cls-1" d="M63.18,264.42c0-2.69,2.68-2.97,2.68-2.97l48.62-5.26c2.7-.27,2.7,2.43,2.7,2.43v29.65c0,2.72-2.7,2.72-2.7,2.72l-48.6-.02c-2.7,.02-2.7-2.68-2.7-2.68v-23.87Z"/>
  <path class="cls-11" d="M72.04,268.31c-.14-1.33-3.42-1.5-3.44,.06,.39,2.08,4.39,.39,4.53,3.31,.08,2.17-3.36,2.42-4.86,1.53-.47-.28-.78-.72-.92-1.28l.92-.19c.14,1.56,3.92,1.75,3.92-.03,0-2.17-4.3-.39-4.5-3.28-.14-2.28,4.03-2.33,4.97-.94,.14,.19,.22,.44,.31,.69l-.92,.14Z"/>
  <path class="cls-11" d="M74.23,273.56v-5.28h.89v5.28h-.89Zm0-6.42v-.83h.89v.83h-.89Z"/>
  <path class="cls-11" d="M81.59,268.87c-1.86,.08-1.06,2.92-1.22,4.69h-.86v-3.36c0-.81-.14-1.39-.97-1.33-1.83,.11-1.06,2.89-1.22,4.69h-.86l-.03-5.28h.83c.03,.28-.03,.67,.06,.89,.28-1.22,2.75-1.39,2.97,0,.31-.58,.75-.97,1.61-1,2.36-.06,1.31,3.31,1.53,5.39h-.86v-3.36c0-.81-.14-1.36-.97-1.33Z"/>
  <path class="cls-11" d="M86.4,273.67c-2.47,.11-1.5-3.22-1.69-5.39h.89v3.33c0,.86,.19,1.39,1.08,1.36,2-.06,1.25-2.81,1.39-4.69h.86l.03,5.28h-.83c-.03-.28,.03-.69-.06-.92-.31,.61-.78,1-1.67,1.03Z"/>
  <polygon class="cls-11" points="90.29 273.56 90.29 269.93 90.29 266.31 91.18 266.31 91.18 269.93 91.18 273.56 90.29 273.56"/>
  <path class="cls-11" d="M93.15,272.09c0,.56,.33,.92,.89,.92,1.14-.08,1.75-.81,1.67-2.06-1.19,.06-2.56-.14-2.56,1.14Zm2.58,.47c-.42,.58-.86,1.14-1.89,1.11-1-.03-1.61-.58-1.61-1.58-.03-1.78,1.75-1.75,3.47-1.75,.08-.97-.25-1.5-1.14-1.5-.67,.03-1.14,.19-1.17,.86l-.92-.08c.14-1.03,.92-1.44,2.11-1.44s2,.56,2,1.78v2.28c-.03,.56,.19,.89,.78,.75v.56c-.86,.25-1.69-.06-1.64-.97Z"/>
  <path class="cls-11" d="M99.01,272.25c-.06,.67,.5,.81,1.06,.61v.67c-.92,.28-1.94,.14-1.94-1.08v-3.53h-.61v-.64h.67l.25-1.19h.58v1.19h.97v.64h-.97v3.33Z"/>
  <path class="cls-11" d="M100.81,273.56v-5.28h.89v5.28h-.89Zm0-6.42v-.83h.89v.83h-.89Z"/>
  <path class="cls-11" d="M105.09,273c1.22,.03,1.47-.86,1.47-2.08s-.22-2.08-1.42-2.08-1.47,.89-1.47,2.08,.28,2.06,1.42,2.08Zm.03-4.83c1.72-.03,2.36,1.03,2.36,2.75,.03,1.75-.75,2.75-2.39,2.75s-2.31-1.08-2.33-2.75c0-1.83,.78-2.75,2.36-2.75Z"/>
  <path class="cls-11" d="M111.15,268.17c2.47-.11,1.47,3.22,1.67,5.39h-.89v-3.36c0-.86-.22-1.36-1.08-1.33-2,.06-1.22,2.83-1.36,4.69h-.89l-.03-5.28h.83c.03,.28-.03,.67,.06,.89,.31-.61,.81-.97,1.69-1Z"/>
  <path class="cls-11" d="M79.36,280.87c-1.86,.08-1.06,2.92-1.22,4.69h-.86v-3.36c0-.81-.14-1.39-.97-1.33-1.83,.11-1.06,2.89-1.22,4.69h-.86l-.03-5.28h.83c.03,.28-.03,.67,.06,.89,.28-1.22,2.75-1.39,2.97,0,.31-.58,.75-.97,1.61-1,2.36-.06,1.31,3.31,1.53,5.39h-.86v-3.36c0-.81-.14-1.36-.97-1.33Z"/>
  <path class="cls-11" d="M86.05,282.42c.17-1.67-2.11-2.14-2.69-.78-.08,.19-.17,.47-.17,.78h2.86Zm-1.44-2.25c1.75,0,2.39,1.17,2.33,2.94h-3.75c0,1.11,.39,1.86,1.47,1.89,.72,.03,1.19-.33,1.36-.81l.78,.22c-.31,.78-1.03,1.25-2.14,1.25-1.61,0-2.44-1.03-2.42-2.78,.03-1.69,.72-2.72,2.36-2.72Z"/>
  <path class="cls-11" d="M89.02,284.26c-.06,.67,.5,.81,1.06,.61v.67c-.92,.28-1.94,.14-1.94-1.08v-3.53h-.61v-.64h.67l.25-1.19h.58v1.19h.97v.64h-.97v3.33Z"/>
  <path class="cls-11" d="M93.11,280.87c-2,0-1.22,2.83-1.36,4.69h-.89v-7.25h.89l-.03,2.86c.33-.58,.78-1,1.69-1,2.47,0,1.47,3.22,1.67,5.39h-.89v-3.36c.06-.89-.22-1.36-1.08-1.33Z"/>
  <path class="cls-11" d="M98.47,285.01c1.22,.03,1.47-.86,1.47-2.08s-.22-2.08-1.42-2.08-1.47,.89-1.47,2.08,.28,2.06,1.42,2.08Zm.03-4.83c1.72-.03,2.36,1.03,2.36,2.75,.03,1.75-.75,2.75-2.39,2.75s-2.31-1.08-2.33-2.75c0-1.83,.78-2.75,2.36-2.75Z"/>
  <path class="cls-11" d="M103.88,280.84c-1.11,0-1.28,.94-1.28,2.08s.17,2.06,1.25,2.06c1.17,0,1.42-.89,1.42-2.11s-.25-2.06-1.39-2.03Zm-.25-.67c.86,0,1.33,.36,1.67,.92l-.03-2.78h.89l.03,7.25h-.83c-.06-.28,0-.64-.08-.86-.28,.64-.78,.97-1.64,.97-1.47,0-1.92-1.08-1.94-2.72,0-1.83,.64-2.78,1.94-2.78Z"/>
  <path class="cls-3" d="M117.85,273.55h14.67c2.65,0,2.65-2.7,2.65-2.7l.05-113.04c-.05-2.7,2.65-2.7,2.65-2.7h6.79"/>
  <rect class="cls-11" x="117.4" y="273.11" width=".5" height=".9"/>
  <rect class="cls-2" x="117.4" y="273.11" width=".5" height=".9"/>
  <polygon class="cls-11" points="151.56 155.11 145.12 157.23 145.12 153.04 151.56 155.11"/>
  <polygon class="cls-3" points="151.56 155.11 145.12 157.23 145.12 153.04 151.56 155.11"/>
  <polyline class="cls-3" points="216.85 155.11 229.68 155.11 234.67 155.11"/>
  <rect class="cls-11" x="216.4" y="154.66" width=".49" height=".9"/>
  <rect class="cls-2" x="216.4" y="154.66" width=".49" height=".9"/>
  <polygon class="cls-11" points="241.51 155.11 235.12 157.23 235.12 153.04 241.51 155.11"/>
  <polygon class="cls-3" points="241.51 155.11 235.12 157.23 235.12 153.04 241.51 155.11"/>
  <polyline class="cls-3" points="306.9 155.11 319.73 155.11 324.67 155.11"/>
  <rect class="cls-11" x="306.45" y="154.66" width=".45" height=".9"/>
  <rect class="cls-2" x="306.45" y="154.66" width=".45" height=".9"/>
  <polygon class="cls-11" points="331.56 155.11 325.12 157.23 325.12 153.04 331.56 155.11"/>
  <polygon class="cls-3" points="331.56 155.11 325.12 157.23 325.12 153.04 331.56 155.11"/>
  <line class="cls-3" x1="396.86" y1="157.05" x2="414.67" y2="157.05"/>
  <rect class="cls-11" x="396.4" y="156.6" width=".49" height=".9"/>
  <rect class="cls-2" x="396.4" y="156.6" width=".49" height=".9"/>
  <polygon class="cls-11" points="421.51 157.05 415.12 159.12 415.12 154.93 421.51 157.05"/>
  <polygon class="cls-3" points="421.51 157.05 415.12 159.12 415.12 154.93 421.51 157.05"/>
  <path class="cls-7" d="M18,20.57c0-2.7,2.7-2.7,2.7-2.7H177.3c2.7,0,2.7,2.7,2.7,2.7V58.06c0,2.71-2.7,2.71-2.7,2.71H20.7c-2.7,0-2.7-2.7-2.7-2.7V20.57Z"/>
  <path class="cls-4" d="M18,20.57c0-2.7,2.7-2.7,2.7-2.7H177.3c2.7,0,2.7,2.7,2.7,2.7V58.06c0,2.71-2.7,2.71-2.7,2.71H20.7c-2.7,0-2.7-2.7-2.7-2.7V20.57Z"/>
  <path class="cls-11" d="M59.49,41.53c2.8,0,3.96-1.82,3.96-4.49s-1.29-4.4-3.96-4.4-3.96,1.73-3.96,4.4,1.24,4.44,3.96,4.49Zm0-10.09c3.6,0,5.47,2.04,5.47,5.6s-1.96,5.73-5.47,5.73-5.47-2.18-5.47-5.73,1.87-5.6,5.47-5.6Z"/>
  <path class="cls-11" d="M68.51,37.13c2.53,0,5.51,.49,5.51-2.22s-3.02-2.09-5.51-2.13v4.36Zm-1.47-5.56c3.87,.04,8.49-.67,8.49,3.33,0,3.47-3.42,3.56-7.02,3.38v4.31h-1.47v-11.02Z"/>
  <polygon class="cls-11" points="82.02 32.82 82.02 37.71 82.02 42.6 80.51 42.6 80.51 37.71 80.51 32.82 76.73 32.82 76.73 32.2 76.73 31.57 85.8 31.57 85.8 32.2 85.8 32.82 82.02 32.82"/>
  <polygon class="cls-11" points="87.58 42.6 87.58 37.08 87.58 31.57 89.09 31.57 89.09 37.08 89.09 42.6 87.58 42.6"/>
  <path class="cls-11" d="M99.98,34.64c-.44-1.24-1.56-2-3.24-2-2.62,0-3.87,1.78-3.87,4.4s1.29,4.49,3.96,4.49c1.91,0,2.76-1.07,3.47-2.31l1.2,.62c-.8,1.69-2.27,2.93-4.76,2.93-3.56,0-5.2-2.22-5.38-5.73-.27-4.62,4.4-6.8,8.31-4.93,.84,.4,1.38,1.16,1.73,2.04l-1.42,.49Z"/>
  <path class="cls-11" d="M112.47,36.24c-.13-1.51-3.82-1.69-3.87,0,.67,2.36,5.11,.53,5.29,4,.18,3.47-6.67,3.29-6.98,.36l1.24-.22c.18,1.6,4.31,2,4.36,0-.44-2.49-5.02-.67-5.24-4-.18-2.53,3.64-2.8,5.42-1.87,.53,.31,.93,.84,1.07,1.56l-1.29,.18Z"/>
  <path class="cls-11" d="M117.09,40.51c-.09,1.07,.8,1.29,1.69,.98v1.07c-1.47,.44-3.11,.22-3.11-1.73v-5.64h-.98v-1.02h1.07l.4-1.91h.93v1.91h1.56v1.02h-1.56v5.33Z"/>
  <path class="cls-11" d="M125.67,37.57c.27-2.67-3.38-3.42-4.31-1.24-.13,.31-.27,.76-.27,1.24h4.58Zm-2.31-3.6c2.8,0,3.82,1.87,3.73,4.71h-6c0,1.78,.62,2.98,2.36,3.02,1.16,.04,1.91-.53,2.18-1.29l1.24,.36c-.49,1.24-1.64,2-3.42,2-2.58,0-3.91-1.64-3.87-4.44,.04-2.71,1.16-4.36,3.78-4.36Z"/>
  <path class="cls-11" d="M132.56,41.71c1.78,0,2-1.51,2-3.33s-.27-3.24-2-3.29c-1.87,0-2.27,1.42-2.27,3.38s.44,3.24,2.27,3.24Zm.36-7.73c2.44,.04,3.11,1.82,3.11,4.36s-.71,4.36-3.11,4.44c-1.38,0-2.18-.58-2.67-1.51l.04,4.67h-1.42l-.04-11.78h1.38l.09,1.33c.44-.93,1.24-1.51,2.62-1.51Z"/>
  <path class="cls-11" d="M142.69,36.24c-.13-1.51-3.82-1.69-3.87,0,.67,2.36,5.11,.53,5.29,4,.18,3.47-6.67,3.29-6.98,.36l1.24-.22c.18,1.6,4.31,2,4.36,0-.44-2.49-5.02-.67-5.24-4-.18-2.53,3.64-2.8,5.42-1.87,.53,.31,.93,.84,1.07,1.56l-1.29,.18Z"/>
</svg>